<svg width="18" height="16" viewBox="0 0 18 16" fill="none" xmlns="http://www.w3.org/2000/svg">
<path fill-rule="evenodd" clip-rule="evenodd" d="M17.5303 2.09489C17.6526 2.06364 17.8052 2.09489 17.897 2.18864C17.9885 2.28239 18.0191 2.43864 17.9885 2.56364C17.7136 3.46977 17.1636 4.12602 16.4915 4.46977V4.5634C16.4915 10.5942 12.0921 15.5 6.71486 15.5C3.6902 15.5 1.24611 14.9688 0.146254 14.0627C0.0239397 13.9377 -0.0370955 13.7814 0.0239397 13.5939C0.0849748 13.4377 0.237807 13.3127 0.421156 13.3127C2.22365 13.2814 3.38478 12.844 4.27077 12.3128C2.55983 12.094 1.49049 11.2504 0.940444 9.65678C0.879408 9.50053 0.940444 9.34428 1.06276 9.25053C1.18483 9.15678 1.36818 9.15678 1.49049 9.21928C1.94874 9.53178 2.407 9.59428 2.95705 9.59428C1.79591 8.87566 0.726576 7.68816 0.298842 6.21953C0.276869 6.10686 0.302504 5.97795 0.364272 5.8914C0.388198 5.85796 0.417494 5.83086 0.451674 5.8134C0.604506 5.71965 0.757094 5.7509 0.879408 5.84465C1.21559 6.12578 1.58205 6.31328 2.13209 6.40703C0.940444 5.15715 0.207289 3.31352 1.24611 1.28252L1.42946 0.907516L1.73488 1.22002C3.62916 3.25102 5.37062 4.18852 8.54787 4.8134V4.6884C8.54787 2.40739 10.2893 0.532516 12.4585 0.501266C13.314 0.501266 14.5056 1.12627 14.9944 1.40752C15.0249 1.40752 15.0554 1.43877 15.0554 1.40752C15.6665 1.22002 16.3999 0.907516 17.2551 0.532516C17.3775 0.470016 17.5303 0.501266 17.6218 0.595016C17.7136 0.688766 17.7442 0.813766 17.6831 0.970016C17.5303 1.40752 17.2859 1.87627 16.9192 2.31364L17.5303 2.09489ZM15.7356 4.23784L15.9133 4.17741C16.4766 3.96623 16.8025 3.51347 17.01 3.12126L15.8543 3.5136C15.7061 3.5739 15.5281 3.5136 15.4688 3.36272C15.4094 3.21172 15.4392 3.03069 15.5579 2.94011C16.032 2.54778 16.3877 2.12529 16.6543 1.67265C16.0615 1.91399 15.5281 2.12529 15.0835 2.27617C14.9705 2.3145 14.8574 2.31633 14.7444 2.28935C14.6797 2.27385 14.6148 2.24882 14.5501 2.21587C14.2239 2.03471 13.0977 1.40092 12.416 1.4312C10.6375 1.46135 9.21486 3.00053 9.21486 4.87163V5.7166L8.85915 5.6563C5.59865 5.05266 3.79054 4.17741 1.89357 2.27617C1.00441 4.56975 2.84205 6.16936 3.46461 6.62199L4.20558 7.16521H3.28663C2.69386 7.16521 2.04176 7.1049 1.44899 6.8333C2.10109 8.22148 3.43483 9.2476 4.56129 9.57964L4.47243 10.1832C4.23512 10.1832 3.99806 10.1832 3.761 10.2133C3.13844 10.2436 2.57545 10.2436 2.04176 10.0624C2.63478 11.2093 3.67213 11.6922 5.36159 11.6922H6.25075L5.50978 12.2354C4.59083 12.9596 3.40529 13.6236 1.36012 13.7746C2.33815 14.2574 4.14625 14.7101 6.84352 14.7101C11.4649 14.7101 15.7356 9.99907 15.7356 4.7509V4.23784Z" fill="white"/>
</svg>
